<mxfile host="app.diagrams.net" agent="Mozilla/5.0 (Windows NT 10.0; Win64; x64) AppleWebKit/537.36 (KHTML, like Gecko) Chrome/134.0.0.0 Safari/537.36" version="26.1.0">
  <diagram name="FeelSave Flow with Legend" id="KlkIxmmztE9AN5r4DT3_">
    <mxGraphModel dx="5481" dy="2872" grid="1" gridSize="10" guides="1" tooltips="1" connect="1" arrows="1" fold="1" page="1" pageScale="1" pageWidth="827" pageHeight="1169" math="0" shadow="0">
      <root>
        <mxCell id="0" />
        <mxCell id="1" parent="0" />
        <mxCell id="zI5HyYLua-8yxu4dtlrq-749" value="" style="rounded=0;whiteSpace=wrap;html=1;fillColor=#d0cee2;strokeColor=#56517e;" vertex="1" parent="1">
          <mxGeometry x="-1760" y="1010" width="670" height="160" as="geometry" />
        </mxCell>
        <mxCell id="zI5HyYLua-8yxu4dtlrq-181" style="edgeStyle=orthogonalEdgeStyle;rounded=0;orthogonalLoop=1;jettySize=auto;html=1;" edge="1" parent="1">
          <mxGeometry relative="1" as="geometry">
            <mxPoint x="674" y="-630" as="sourcePoint" />
            <mxPoint x="700" y="-630" as="targetPoint" />
          </mxGeometry>
        </mxCell>
        <mxCell id="zI5HyYLua-8yxu4dtlrq-813" style="edgeStyle=orthogonalEdgeStyle;rounded=0;orthogonalLoop=1;jettySize=auto;html=1;entryX=0.5;entryY=1;entryDx=0;entryDy=0;fillColor=#ffcd28;gradientColor=#ffa500;strokeColor=#d79b00;" edge="1" parent="1" source="zI5HyYLua-8yxu4dtlrq-186" target="zI5HyYLua-8yxu4dtlrq-556">
          <mxGeometry relative="1" as="geometry">
            <Array as="points">
              <mxPoint x="-387" y="1120" />
              <mxPoint x="-387" y="1160" />
              <mxPoint x="556" y="1160" />
            </Array>
          </mxGeometry>
        </mxCell>
        <mxCell id="zI5HyYLua-8yxu4dtlrq-814" style="edgeStyle=orthogonalEdgeStyle;rounded=0;orthogonalLoop=1;jettySize=auto;html=1;entryX=0.5;entryY=1;entryDx=0;entryDy=0;" edge="1" parent="1" source="zI5HyYLua-8yxu4dtlrq-186" target="zI5HyYLua-8yxu4dtlrq-556">
          <mxGeometry relative="1" as="geometry">
            <Array as="points">
              <mxPoint x="-387" y="1140" />
              <mxPoint x="-387" y="1150" />
              <mxPoint x="556" y="1150" />
            </Array>
          </mxGeometry>
        </mxCell>
        <mxCell id="zI5HyYLua-8yxu4dtlrq-186" value="Firebase Datenbank" style="ellipse;whiteSpace=wrap;html=1;" vertex="1" parent="1">
          <mxGeometry x="-1575" y="1030" width="300" height="120" as="geometry" />
        </mxCell>
        <mxCell id="zI5HyYLua-8yxu4dtlrq-235" value="" style="group;strokeWidth=1;" vertex="1" connectable="0" parent="1">
          <mxGeometry x="240" y="70" width="550" height="360" as="geometry" />
        </mxCell>
        <mxCell id="zI5HyYLua-8yxu4dtlrq-191" value="" style="rounded=1;whiteSpace=wrap;html=1;" vertex="1" parent="zI5HyYLua-8yxu4dtlrq-235">
          <mxGeometry width="550" height="360" as="geometry" />
        </mxCell>
        <mxCell id="zI5HyYLua-8yxu4dtlrq-192" value="&lt;font style=&quot;font-size: 25px;&quot;&gt;&lt;b style=&quot;&quot;&gt;Legende&lt;/b&gt;&lt;/font&gt;" style="text;html=1;align=center;verticalAlign=middle;whiteSpace=wrap;rounded=0;" vertex="1" parent="zI5HyYLua-8yxu4dtlrq-235">
          <mxGeometry x="46.808510638297875" y="43.199999999999996" width="70.2127659574468" height="43.199999999999996" as="geometry" />
        </mxCell>
        <mxCell id="zI5HyYLua-8yxu4dtlrq-193" value="System decsion" style="rhombus;whiteSpace=wrap;html=1;shadow=0;fontFamily=Helvetica;fontSize=12;align=center;strokeWidth=1;spacing=6;spacingTop=-4;" vertex="1" parent="zI5HyYLua-8yxu4dtlrq-235">
          <mxGeometry x="215.90425531914894" y="80.63999999999999" width="93.61702127659575" height="86.39999999999999" as="geometry" />
        </mxCell>
        <mxCell id="zI5HyYLua-8yxu4dtlrq-194" value="Button" style="rounded=1;whiteSpace=wrap;html=1;fontSize=12;glass=0;strokeWidth=1;shadow=0;fillColor=#f8cecc;strokeColor=#b85450;" vertex="1" parent="zI5HyYLua-8yxu4dtlrq-235">
          <mxGeometry x="187.2340425531915" y="253.43999999999997" width="117.0212765957447" height="43.199999999999996" as="geometry" />
        </mxCell>
        <mxCell id="zI5HyYLua-8yxu4dtlrq-195" value="System Action" style="rounded=0;whiteSpace=wrap;html=1;fillColor=#ffe6cc;strokeColor=#d79b00;" vertex="1" parent="zI5HyYLua-8yxu4dtlrq-235">
          <mxGeometry x="35.1063829787234" y="95.03999999999999" width="105.31914893617022" height="57.6" as="geometry" />
        </mxCell>
        <mxCell id="zI5HyYLua-8yxu4dtlrq-207" value="Database" style="ellipse;whiteSpace=wrap;html=1;" vertex="1" parent="zI5HyYLua-8yxu4dtlrq-235">
          <mxGeometry x="362.76595744680856" y="66.23999999999998" width="163.82978723404258" height="115.2" as="geometry" />
        </mxCell>
        <mxCell id="zI5HyYLua-8yxu4dtlrq-214" value="Userinput" style="rounded=1;whiteSpace=wrap;html=1;fontSize=12;glass=0;strokeWidth=1;shadow=0;fillColor=#e1d5e7;strokeColor=#9673a6;" vertex="1" parent="zI5HyYLua-8yxu4dtlrq-235">
          <mxGeometry x="35.1063829787234" y="253.43999999999997" width="105.31914893617022" height="48.959999999999994" as="geometry" />
        </mxCell>
        <mxCell id="zI5HyYLua-8yxu4dtlrq-215" value="Screens" style="rounded=0;whiteSpace=wrap;html=1;fillColor=#dae8fc;strokeColor=#6c8ebf;" vertex="1" parent="zI5HyYLua-8yxu4dtlrq-235">
          <mxGeometry x="35.1063829787234" y="181.43999999999997" width="105.31914893617022" height="48.959999999999994" as="geometry" />
        </mxCell>
        <mxCell id="zI5HyYLua-8yxu4dtlrq-220" value="User Action" style="rounded=1;whiteSpace=wrap;html=1;fontSize=12;glass=0;strokeWidth=1;shadow=0;fillColor=#d5e8d4;strokeColor=#82b366;" vertex="1" parent="zI5HyYLua-8yxu4dtlrq-235">
          <mxGeometry x="351.0638297872341" y="249.12" width="140.4255319148936" height="57.6" as="geometry" />
        </mxCell>
        <mxCell id="zI5HyYLua-8yxu4dtlrq-806" value="" style="endArrow=classic;html=1;rounded=0;fillColor=#ffcd28;gradientColor=#ffa500;strokeColor=#d79b00;" edge="1" parent="zI5HyYLua-8yxu4dtlrq-235">
          <mxGeometry width="50" height="50" relative="1" as="geometry">
            <mxPoint x="300" y="220" as="sourcePoint" />
            <mxPoint x="350" y="170" as="targetPoint" />
          </mxGeometry>
        </mxCell>
        <mxCell id="zI5HyYLua-8yxu4dtlrq-807" value="Database Interaction" style="edgeLabel;html=1;align=center;verticalAlign=middle;resizable=0;points=[];" vertex="1" connectable="0" parent="zI5HyYLua-8yxu4dtlrq-806">
          <mxGeometry x="-0.0314" y="-1" relative="1" as="geometry">
            <mxPoint as="offset" />
          </mxGeometry>
        </mxCell>
        <mxCell id="zI5HyYLua-8yxu4dtlrq-252" value="" style="group" vertex="1" connectable="0" parent="1">
          <mxGeometry x="-1090" y="69" width="850" height="1100" as="geometry" />
        </mxCell>
        <mxCell id="zI5HyYLua-8yxu4dtlrq-153" value="" style="rounded=0;whiteSpace=wrap;html=1;fillColor=#fff2cc;strokeColor=#d6b656;" vertex="1" parent="zI5HyYLua-8yxu4dtlrq-252">
          <mxGeometry width="850" height="1100" as="geometry" />
        </mxCell>
        <mxCell id="zI5HyYLua-8yxu4dtlrq-154" style="edgeStyle=orthogonalEdgeStyle;rounded=0;orthogonalLoop=1;jettySize=auto;html=1;" edge="1" parent="zI5HyYLua-8yxu4dtlrq-252" source="zI5HyYLua-8yxu4dtlrq-155" target="zI5HyYLua-8yxu4dtlrq-217">
          <mxGeometry relative="1" as="geometry" />
        </mxCell>
        <mxCell id="zI5HyYLua-8yxu4dtlrq-155" value="SOS Button" style="rounded=1;whiteSpace=wrap;html=1;fontSize=12;glass=0;strokeWidth=1;shadow=0;fillColor=#f8cecc;strokeColor=#b85450;" vertex="1" parent="zI5HyYLua-8yxu4dtlrq-252">
          <mxGeometry x="365" y="180.17241379310346" width="120" height="37.93103448275862" as="geometry" />
        </mxCell>
        <mxCell id="zI5HyYLua-8yxu4dtlrq-156" value="Ja" style="rounded=0;html=1;jettySize=auto;orthogonalLoop=1;fontSize=11;endArrow=block;endFill=0;endSize=8;strokeWidth=1;shadow=0;labelBackgroundColor=none;edgeStyle=orthogonalEdgeStyle;entryX=0.5;entryY=0;entryDx=0;entryDy=0;" edge="1" parent="zI5HyYLua-8yxu4dtlrq-252" source="zI5HyYLua-8yxu4dtlrq-158" target="zI5HyYLua-8yxu4dtlrq-162">
          <mxGeometry y="20" relative="1" as="geometry">
            <mxPoint as="offset" />
            <mxPoint x="585" y="398.2758620689655" as="targetPoint" />
          </mxGeometry>
        </mxCell>
        <mxCell id="zI5HyYLua-8yxu4dtlrq-157" value="Nein" style="edgeStyle=orthogonalEdgeStyle;rounded=0;html=1;jettySize=auto;orthogonalLoop=1;fontSize=11;endArrow=block;endFill=0;endSize=8;strokeWidth=1;shadow=0;labelBackgroundColor=none;" edge="1" parent="zI5HyYLua-8yxu4dtlrq-252" source="zI5HyYLua-8yxu4dtlrq-158" target="zI5HyYLua-8yxu4dtlrq-159">
          <mxGeometry y="10" relative="1" as="geometry">
            <mxPoint as="offset" />
          </mxGeometry>
        </mxCell>
        <mxCell id="zI5HyYLua-8yxu4dtlrq-158" value="Ist der Countdown abgelaufen" style="rhombus;whiteSpace=wrap;html=1;shadow=0;fontFamily=Helvetica;fontSize=12;align=center;strokeWidth=1;spacing=6;spacingTop=-4;" vertex="1" parent="zI5HyYLua-8yxu4dtlrq-252">
          <mxGeometry x="375" y="327.1551724137931" width="100" height="75.86206896551724" as="geometry" />
        </mxCell>
        <mxCell id="zI5HyYLua-8yxu4dtlrq-159" value="Countdown wird zurÃ¼ckgesetzt" style="rounded=1;whiteSpace=wrap;html=1;fontSize=12;glass=0;strokeWidth=1;shadow=0;fillColor=#ffe6cc;strokeColor=#d79b00;" vertex="1" parent="zI5HyYLua-8yxu4dtlrq-252">
          <mxGeometry x="635" y="346.12068965517244" width="120" height="37.93103448275862" as="geometry" />
        </mxCell>
        <mxCell id="zI5HyYLua-8yxu4dtlrq-160" style="edgeStyle=orthogonalEdgeStyle;rounded=0;orthogonalLoop=1;jettySize=auto;html=1;" edge="1" parent="zI5HyYLua-8yxu4dtlrq-252" source="zI5HyYLua-8yxu4dtlrq-162" target="zI5HyYLua-8yxu4dtlrq-222">
          <mxGeometry relative="1" as="geometry" />
        </mxCell>
        <mxCell id="zI5HyYLua-8yxu4dtlrq-161" style="edgeStyle=orthogonalEdgeStyle;rounded=0;orthogonalLoop=1;jettySize=auto;html=1;entryX=1;entryY=0.5;entryDx=0;entryDy=0;" edge="1" parent="zI5HyYLua-8yxu4dtlrq-252" source="zI5HyYLua-8yxu4dtlrq-162" target="zI5HyYLua-8yxu4dtlrq-219">
          <mxGeometry relative="1" as="geometry" />
        </mxCell>
        <mxCell id="zI5HyYLua-8yxu4dtlrq-162" value="Safemode an/Standort wird verfolgt" style="rounded=1;whiteSpace=wrap;html=1;fontSize=12;glass=0;strokeWidth=1;shadow=0;fillColor=#ffe6cc;strokeColor=#d79b00;" vertex="1" parent="zI5HyYLua-8yxu4dtlrq-252">
          <mxGeometry x="350" y="464.6551724137931" width="150" height="56.89655172413793" as="geometry" />
        </mxCell>
        <mxCell id="zI5HyYLua-8yxu4dtlrq-163" value="EinstellungsButton" style="rounded=1;whiteSpace=wrap;html=1;fontSize=12;glass=0;strokeWidth=1;shadow=0;fillColor=#f8cecc;strokeColor=#b85450;" vertex="1" parent="zI5HyYLua-8yxu4dtlrq-252">
          <mxGeometry x="677" y="63.07206896551724" width="120" height="37.93103448275862" as="geometry" />
        </mxCell>
        <mxCell id="zI5HyYLua-8yxu4dtlrq-406" style="edgeStyle=orthogonalEdgeStyle;rounded=0;orthogonalLoop=1;jettySize=auto;html=1;" edge="1" parent="zI5HyYLua-8yxu4dtlrq-252" source="zI5HyYLua-8yxu4dtlrq-165" target="zI5HyYLua-8yxu4dtlrq-405">
          <mxGeometry relative="1" as="geometry" />
        </mxCell>
        <mxCell id="zI5HyYLua-8yxu4dtlrq-165" value="InfoButton" style="rounded=1;whiteSpace=wrap;html=1;fontSize=12;glass=0;strokeWidth=1;shadow=0;fillColor=#f8cecc;strokeColor=#b85450;" vertex="1" parent="zI5HyYLua-8yxu4dtlrq-252">
          <mxGeometry x="55" y="768.1034482758621" width="120" height="37.93103448275862" as="geometry" />
        </mxCell>
        <mxCell id="zI5HyYLua-8yxu4dtlrq-187" value="" style="edgeStyle=orthogonalEdgeStyle;rounded=0;orthogonalLoop=1;jettySize=auto;html=1;" edge="1" parent="zI5HyYLua-8yxu4dtlrq-252" source="zI5HyYLua-8yxu4dtlrq-188" target="zI5HyYLua-8yxu4dtlrq-234">
          <mxGeometry relative="1" as="geometry" />
        </mxCell>
        <mxCell id="zI5HyYLua-8yxu4dtlrq-188" value="Daten von Datenbank empfangen" style="rounded=1;whiteSpace=wrap;html=1;fontSize=12;glass=0;strokeWidth=1;shadow=0;fillColor=#ffe6cc;strokeColor=#d79b00;" vertex="1" parent="zI5HyYLua-8yxu4dtlrq-252">
          <mxGeometry x="365" y="881.8965517241379" width="120" height="37.93103448275862" as="geometry" />
        </mxCell>
        <mxCell id="zI5HyYLua-8yxu4dtlrq-216" style="edgeStyle=orthogonalEdgeStyle;rounded=0;orthogonalLoop=1;jettySize=auto;html=1;" edge="1" parent="zI5HyYLua-8yxu4dtlrq-252" source="zI5HyYLua-8yxu4dtlrq-217" target="zI5HyYLua-8yxu4dtlrq-158">
          <mxGeometry relative="1" as="geometry" />
        </mxCell>
        <mxCell id="zI5HyYLua-8yxu4dtlrq-217" value="Countdown starten" style="rounded=1;whiteSpace=wrap;html=1;fontSize=12;glass=0;strokeWidth=1;shadow=0;fillColor=#ffe6cc;strokeColor=#d79b00;" vertex="1" parent="zI5HyYLua-8yxu4dtlrq-252">
          <mxGeometry x="365" y="265.51724137931035" width="120" height="37.93103448275862" as="geometry" />
        </mxCell>
        <mxCell id="zI5HyYLua-8yxu4dtlrq-218" style="edgeStyle=orthogonalEdgeStyle;rounded=0;orthogonalLoop=1;jettySize=auto;html=1;entryX=0.5;entryY=1;entryDx=0;entryDy=0;" edge="1" parent="zI5HyYLua-8yxu4dtlrq-252" source="zI5HyYLua-8yxu4dtlrq-219" target="zI5HyYLua-8yxu4dtlrq-230">
          <mxGeometry relative="1" as="geometry" />
        </mxCell>
        <mxCell id="zI5HyYLua-8yxu4dtlrq-219" value="Zeige Abrechen button an" style="rounded=1;whiteSpace=wrap;html=1;fontSize=12;glass=0;strokeWidth=1;shadow=0;fillColor=#ffe6cc;strokeColor=#d79b00;" vertex="1" parent="zI5HyYLua-8yxu4dtlrq-252">
          <mxGeometry x="55" y="474.1379310344828" width="120" height="37.93103448275862" as="geometry" />
        </mxCell>
        <mxCell id="zI5HyYLua-8yxu4dtlrq-221" style="edgeStyle=orthogonalEdgeStyle;rounded=0;orthogonalLoop=1;jettySize=auto;html=1;" edge="1" parent="zI5HyYLua-8yxu4dtlrq-252" source="zI5HyYLua-8yxu4dtlrq-222" target="zI5HyYLua-8yxu4dtlrq-228">
          <mxGeometry relative="1" as="geometry" />
        </mxCell>
        <mxCell id="zI5HyYLua-8yxu4dtlrq-222" value="Button loslassen" style="rounded=1;whiteSpace=wrap;html=1;fontSize=12;glass=0;strokeWidth=1;shadow=0;fillColor=#d5e8d4;strokeColor=#82b366;" vertex="1" parent="zI5HyYLua-8yxu4dtlrq-252">
          <mxGeometry x="365" y="559.4827586206897" width="120" height="37.93103448275862" as="geometry" />
        </mxCell>
        <mxCell id="zI5HyYLua-8yxu4dtlrq-245" value="" style="edgeStyle=orthogonalEdgeStyle;rounded=0;orthogonalLoop=1;jettySize=auto;html=1;" edge="1" parent="zI5HyYLua-8yxu4dtlrq-252" source="zI5HyYLua-8yxu4dtlrq-225" target="zI5HyYLua-8yxu4dtlrq-188">
          <mxGeometry relative="1" as="geometry" />
        </mxCell>
        <mxCell id="zI5HyYLua-8yxu4dtlrq-246" value="Ja" style="edgeLabel;html=1;align=center;verticalAlign=middle;resizable=0;points=[];" vertex="1" connectable="0" parent="zI5HyYLua-8yxu4dtlrq-245">
          <mxGeometry x="-0.4143" y="-3" relative="1" as="geometry">
            <mxPoint as="offset" />
          </mxGeometry>
        </mxCell>
        <mxCell id="zI5HyYLua-8yxu4dtlrq-248" style="edgeStyle=orthogonalEdgeStyle;rounded=0;orthogonalLoop=1;jettySize=auto;html=1;entryX=0.5;entryY=1;entryDx=0;entryDy=0;" edge="1" parent="zI5HyYLua-8yxu4dtlrq-252" source="zI5HyYLua-8yxu4dtlrq-225" target="zI5HyYLua-8yxu4dtlrq-226">
          <mxGeometry relative="1" as="geometry" />
        </mxCell>
        <mxCell id="zI5HyYLua-8yxu4dtlrq-225" value="Ist der Countdown abgelaufen" style="rhombus;whiteSpace=wrap;html=1;shadow=0;fontFamily=Helvetica;fontSize=12;align=center;strokeWidth=1;spacing=6;spacingTop=-4;" vertex="1" parent="zI5HyYLua-8yxu4dtlrq-252">
          <mxGeometry x="375" y="749.1379310344828" width="100" height="75.86206896551724" as="geometry" />
        </mxCell>
        <mxCell id="zI5HyYLua-8yxu4dtlrq-249" style="edgeStyle=orthogonalEdgeStyle;rounded=0;orthogonalLoop=1;jettySize=auto;html=1;" edge="1" parent="zI5HyYLua-8yxu4dtlrq-252" source="zI5HyYLua-8yxu4dtlrq-226" target="zI5HyYLua-8yxu4dtlrq-228">
          <mxGeometry relative="1" as="geometry" />
        </mxCell>
        <mxCell id="zI5HyYLua-8yxu4dtlrq-226" value="Notfall Countdown wird zurÃ¼ckgesetzt" style="rounded=1;whiteSpace=wrap;html=1;fontSize=12;glass=0;strokeWidth=1;shadow=0;fillColor=#ffe6cc;strokeColor=#d79b00;" vertex="1" parent="zI5HyYLua-8yxu4dtlrq-252">
          <mxGeometry x="645" y="649.5689655172414" width="120" height="37.93103448275862" as="geometry" />
        </mxCell>
        <mxCell id="zI5HyYLua-8yxu4dtlrq-227" style="edgeStyle=orthogonalEdgeStyle;rounded=0;orthogonalLoop=1;jettySize=auto;html=1;" edge="1" parent="zI5HyYLua-8yxu4dtlrq-252" source="zI5HyYLua-8yxu4dtlrq-228" target="zI5HyYLua-8yxu4dtlrq-225">
          <mxGeometry relative="1" as="geometry" />
        </mxCell>
        <mxCell id="zI5HyYLua-8yxu4dtlrq-228" value="Countdown starten" style="rounded=1;whiteSpace=wrap;html=1;fontSize=12;glass=0;strokeWidth=1;shadow=0;fillColor=#ffe6cc;strokeColor=#d79b00;" vertex="1" parent="zI5HyYLua-8yxu4dtlrq-252">
          <mxGeometry x="365" y="649.5689655172414" width="120" height="37.93103448275862" as="geometry" />
        </mxCell>
        <mxCell id="zI5HyYLua-8yxu4dtlrq-229" style="edgeStyle=orthogonalEdgeStyle;rounded=0;orthogonalLoop=1;jettySize=auto;html=1;entryX=0.5;entryY=1;entryDx=0;entryDy=0;" edge="1" parent="zI5HyYLua-8yxu4dtlrq-252" source="zI5HyYLua-8yxu4dtlrq-230" target="zI5HyYLua-8yxu4dtlrq-231">
          <mxGeometry relative="1" as="geometry" />
        </mxCell>
        <mxCell id="zI5HyYLua-8yxu4dtlrq-230" value="Abbrechen button" style="rounded=1;whiteSpace=wrap;html=1;fontSize=12;glass=0;strokeWidth=1;shadow=0;fillColor=#f8cecc;strokeColor=#b85450;" vertex="1" parent="zI5HyYLua-8yxu4dtlrq-252">
          <mxGeometry x="55" y="360.3448275862069" width="120" height="37.93103448275862" as="geometry" />
        </mxCell>
        <mxCell id="zI5HyYLua-8yxu4dtlrq-231" value="Verstecke button" style="rounded=1;whiteSpace=wrap;html=1;fontSize=12;glass=0;strokeWidth=1;shadow=0;fillColor=#ffe6cc;strokeColor=#d79b00;" vertex="1" parent="zI5HyYLua-8yxu4dtlrq-252">
          <mxGeometry x="55" y="289.2241379310345" width="120" height="37.93103448275862" as="geometry" />
        </mxCell>
        <mxCell id="zI5HyYLua-8yxu4dtlrq-234" value="SOS-Nachicht versendet" style="whiteSpace=wrap;html=1;fillColor=#ffe6cc;strokeColor=#d79b00;rounded=1;glass=0;strokeWidth=1;shadow=0;" vertex="1" parent="zI5HyYLua-8yxu4dtlrq-252">
          <mxGeometry x="365" y="986.2068965517242" width="120" height="56.89655172413793" as="geometry" />
        </mxCell>
        <mxCell id="zI5HyYLua-8yxu4dtlrq-242" value="&lt;font&gt;&lt;b&gt;Home&lt;/b&gt;&lt;/font&gt;" style="text;html=1;align=center;verticalAlign=middle;whiteSpace=wrap;rounded=0;fontSize=25;" vertex="1" parent="zI5HyYLua-8yxu4dtlrq-252">
          <mxGeometry x="400" y="18.96551724137931" width="60" height="28.448275862068964" as="geometry" />
        </mxCell>
        <mxCell id="zI5HyYLua-8yxu4dtlrq-251" value="" style="edgeStyle=orthogonalEdgeStyle;rounded=0;orthogonalLoop=1;jettySize=auto;html=1;" edge="1" parent="zI5HyYLua-8yxu4dtlrq-252" source="zI5HyYLua-8yxu4dtlrq-250" target="zI5HyYLua-8yxu4dtlrq-155">
          <mxGeometry relative="1" as="geometry" />
        </mxCell>
        <mxCell id="zI5HyYLua-8yxu4dtlrq-250" value="Hauptscreen" style="rounded=1;whiteSpace=wrap;html=1;fontSize=12;glass=0;strokeWidth=1;shadow=0;fillColor=#dae8fc;strokeColor=#6c8ebf;" vertex="1" parent="zI5HyYLua-8yxu4dtlrq-252">
          <mxGeometry x="357.5" y="75.86206896551724" width="135" height="66.37931034482759" as="geometry" />
        </mxCell>
        <mxCell id="zI5HyYLua-8yxu4dtlrq-448" value="" style="edgeStyle=orthogonalEdgeStyle;rounded=0;orthogonalLoop=1;jettySize=auto;html=1;" edge="1" parent="zI5HyYLua-8yxu4dtlrq-252" source="zI5HyYLua-8yxu4dtlrq-405" target="zI5HyYLua-8yxu4dtlrq-407">
          <mxGeometry relative="1" as="geometry" />
        </mxCell>
        <mxCell id="zI5HyYLua-8yxu4dtlrq-405" value="Starte info dialog" style="rounded=1;whiteSpace=wrap;html=1;fontSize=12;glass=0;strokeWidth=1;shadow=0;fillColor=#ffe6cc;strokeColor=#d79b00;" vertex="1" parent="zI5HyYLua-8yxu4dtlrq-252">
          <mxGeometry x="55" y="843.9655172413793" width="120" height="37.93103448275862" as="geometry" />
        </mxCell>
        <mxCell id="zI5HyYLua-8yxu4dtlrq-449" value="" style="edgeStyle=orthogonalEdgeStyle;rounded=0;orthogonalLoop=1;jettySize=auto;html=1;" edge="1" parent="zI5HyYLua-8yxu4dtlrq-252" source="zI5HyYLua-8yxu4dtlrq-407" target="zI5HyYLua-8yxu4dtlrq-447">
          <mxGeometry relative="1" as="geometry" />
        </mxCell>
        <mxCell id="zI5HyYLua-8yxu4dtlrq-407" value="Fertig" style="rounded=1;whiteSpace=wrap;html=1;fontSize=12;glass=0;strokeWidth=1;shadow=0;fillColor=#f8cecc;strokeColor=#b85450;" vertex="1" parent="zI5HyYLua-8yxu4dtlrq-252">
          <mxGeometry x="55" y="910.3448275862069" width="120" height="37.93103448275862" as="geometry" />
        </mxCell>
        <mxCell id="zI5HyYLua-8yxu4dtlrq-447" value="SchlieÃe Infodialog" style="rounded=1;whiteSpace=wrap;html=1;fontSize=12;glass=0;strokeWidth=1;shadow=0;fillColor=#ffe6cc;strokeColor=#d79b00;" vertex="1" parent="zI5HyYLua-8yxu4dtlrq-252">
          <mxGeometry x="55" y="976.7241379310345" width="120" height="37.93103448275862" as="geometry" />
        </mxCell>
        <mxCell id="zI5HyYLua-8yxu4dtlrq-542" value="" style="group" vertex="1" connectable="0" parent="1">
          <mxGeometry x="-240" y="539" width="560" height="630" as="geometry" />
        </mxCell>
        <mxCell id="zI5HyYLua-8yxu4dtlrq-503" value="" style="rounded=0;whiteSpace=wrap;html=1;fillColor=#dae8fc;strokeColor=#6c8ebf;container=0;" vertex="1" parent="zI5HyYLua-8yxu4dtlrq-542">
          <mxGeometry width="560" height="630" as="geometry" />
        </mxCell>
        <mxCell id="zI5HyYLua-8yxu4dtlrq-514" value="" style="edgeStyle=orthogonalEdgeStyle;rounded=0;orthogonalLoop=1;jettySize=auto;html=1;" edge="1" parent="zI5HyYLua-8yxu4dtlrq-542" source="zI5HyYLua-8yxu4dtlrq-504" target="zI5HyYLua-8yxu4dtlrq-511">
          <mxGeometry relative="1" as="geometry" />
        </mxCell>
        <mxCell id="zI5HyYLua-8yxu4dtlrq-504" value="Kontakte auswÃ¤hlen" style="rounded=1;whiteSpace=wrap;html=1;fontSize=12;glass=0;strokeWidth=1;shadow=0;fillColor=#f8cecc;strokeColor=#b85450;container=0;" vertex="1" parent="zI5HyYLua-8yxu4dtlrq-542">
          <mxGeometry x="298.5365853658537" y="178.7234042553191" width="149.26829268292684" height="47.659574468085104" as="geometry" />
        </mxCell>
        <mxCell id="zI5HyYLua-8yxu4dtlrq-536" value="" style="edgeStyle=orthogonalEdgeStyle;rounded=0;orthogonalLoop=1;jettySize=auto;html=1;" edge="1" parent="zI5HyYLua-8yxu4dtlrq-542" source="zI5HyYLua-8yxu4dtlrq-505" target="zI5HyYLua-8yxu4dtlrq-534">
          <mxGeometry relative="1" as="geometry" />
        </mxCell>
        <mxCell id="zI5HyYLua-8yxu4dtlrq-505" value="HinzufÃ¼gen" style="rounded=1;whiteSpace=wrap;html=1;fontSize=12;glass=0;strokeWidth=1;shadow=0;fillColor=#f8cecc;strokeColor=#b85450;container=0;" vertex="1" parent="zI5HyYLua-8yxu4dtlrq-542">
          <mxGeometry x="37.316585365853655" y="259.99744680851063" width="149.26829268292684" height="47.659574468085104" as="geometry" />
        </mxCell>
        <mxCell id="zI5HyYLua-8yxu4dtlrq-509" value="&lt;font&gt;&lt;b&gt;Notfallkontakte&lt;/b&gt;&lt;/font&gt;" style="text;html=1;align=center;verticalAlign=middle;whiteSpace=wrap;rounded=0;fontSize=25;container=0;" vertex="1" parent="zI5HyYLua-8yxu4dtlrq-542">
          <mxGeometry x="242.68439024390244" y="10" width="74.63414634146342" height="35.744680851063826" as="geometry" />
        </mxCell>
        <mxCell id="zI5HyYLua-8yxu4dtlrq-517" style="edgeStyle=orthogonalEdgeStyle;rounded=0;orthogonalLoop=1;jettySize=auto;html=1;entryX=0.5;entryY=0;entryDx=0;entryDy=0;" edge="1" parent="zI5HyYLua-8yxu4dtlrq-542" source="zI5HyYLua-8yxu4dtlrq-510" target="zI5HyYLua-8yxu4dtlrq-516">
          <mxGeometry relative="1" as="geometry">
            <mxPoint x="310" y="540" as="targetPoint" />
          </mxGeometry>
        </mxCell>
        <mxCell id="zI5HyYLua-8yxu4dtlrq-510" value="Notfallkontaktescreen" style="rounded=1;whiteSpace=wrap;html=1;fontSize=12;glass=0;strokeWidth=1;shadow=0;fillColor=#dae8fc;strokeColor=#6c8ebf;container=0;" vertex="1" parent="zI5HyYLua-8yxu4dtlrq-542">
          <mxGeometry x="161.70731707317074" y="71.48936170212767" width="149.26829268292684" height="47.659574468085104" as="geometry" />
        </mxCell>
        <mxCell id="zI5HyYLua-8yxu4dtlrq-538" value="" style="edgeStyle=orthogonalEdgeStyle;rounded=0;orthogonalLoop=1;jettySize=auto;html=1;" edge="1" parent="zI5HyYLua-8yxu4dtlrq-542" source="zI5HyYLua-8yxu4dtlrq-511" target="zI5HyYLua-8yxu4dtlrq-533">
          <mxGeometry relative="1" as="geometry" />
        </mxCell>
        <mxCell id="zI5HyYLua-8yxu4dtlrq-511" value="Ã¶ffne kontaktliste" style="rounded=0;whiteSpace=wrap;html=1;fillColor=#ffe6cc;strokeColor=#d79b00;container=0;" vertex="1" parent="zI5HyYLua-8yxu4dtlrq-542">
          <mxGeometry x="317.1951219512195" y="259.99744680851063" width="111.95121951219512" height="47.659574468085104" as="geometry" />
        </mxCell>
        <mxCell id="zI5HyYLua-8yxu4dtlrq-515" value="" style="edgeStyle=orthogonalEdgeStyle;rounded=0;orthogonalLoop=1;jettySize=auto;html=1;" edge="1" parent="zI5HyYLua-8yxu4dtlrq-542" source="zI5HyYLua-8yxu4dtlrq-513" target="zI5HyYLua-8yxu4dtlrq-505">
          <mxGeometry relative="1" as="geometry" />
        </mxCell>
        <mxCell id="zI5HyYLua-8yxu4dtlrq-513" value="input: Kontaktdaten" style="rounded=1;whiteSpace=wrap;html=1;fontSize=12;glass=0;strokeWidth=1;shadow=0;fillColor=#e1d5e7;strokeColor=#9673a6;container=0;" vertex="1" parent="zI5HyYLua-8yxu4dtlrq-542">
          <mxGeometry x="43.536097560975605" y="150.00340425531908" width="136.82926829268294" height="59.57446808510638" as="geometry" />
        </mxCell>
        <mxCell id="zI5HyYLua-8yxu4dtlrq-516" value="Zeige aktuelle Notfallkontakte" style="rounded=0;whiteSpace=wrap;html=1;fillColor=#ffe6cc;strokeColor=#d79b00;container=0;" vertex="1" parent="zI5HyYLua-8yxu4dtlrq-542">
          <mxGeometry x="180.36512195121952" y="501.9965957446808" width="111.95121951219512" height="47.659574468085104" as="geometry" />
        </mxCell>
        <mxCell id="zI5HyYLua-8yxu4dtlrq-540" value="" style="edgeStyle=orthogonalEdgeStyle;rounded=0;orthogonalLoop=1;jettySize=auto;html=1;" edge="1" parent="zI5HyYLua-8yxu4dtlrq-542" source="zI5HyYLua-8yxu4dtlrq-531" target="zI5HyYLua-8yxu4dtlrq-532">
          <mxGeometry relative="1" as="geometry" />
        </mxCell>
        <mxCell id="zI5HyYLua-8yxu4dtlrq-531" value="LÃ¶sche Kontakt" style="rounded=1;whiteSpace=wrap;html=1;fontSize=12;glass=0;strokeWidth=1;shadow=0;fillColor=#f8cecc;strokeColor=#b85450;container=0;" vertex="1" parent="zI5HyYLua-8yxu4dtlrq-542">
          <mxGeometry x="369.9980487804878" y="449.9965957446808" width="149.26829268292684" height="47.659574468085104" as="geometry" />
        </mxCell>
        <mxCell id="zI5HyYLua-8yxu4dtlrq-541" style="edgeStyle=orthogonalEdgeStyle;rounded=0;orthogonalLoop=1;jettySize=auto;html=1;entryX=0.5;entryY=1;entryDx=0;entryDy=0;" edge="1" parent="zI5HyYLua-8yxu4dtlrq-542" source="zI5HyYLua-8yxu4dtlrq-532" target="zI5HyYLua-8yxu4dtlrq-516">
          <mxGeometry relative="1" as="geometry" />
        </mxCell>
        <mxCell id="zI5HyYLua-8yxu4dtlrq-532" value="Kontakt lÃ¶schen" style="rounded=0;whiteSpace=wrap;html=1;fillColor=#ffe6cc;strokeColor=#d79b00;container=0;" vertex="1" parent="zI5HyYLua-8yxu4dtlrq-542">
          <mxGeometry x="388.6551219512195" y="559.9957446808511" width="111.95121951219512" height="47.659574468085104" as="geometry" />
        </mxCell>
        <mxCell id="zI5HyYLua-8yxu4dtlrq-537" style="edgeStyle=orthogonalEdgeStyle;rounded=0;orthogonalLoop=1;jettySize=auto;html=1;entryX=1;entryY=0.5;entryDx=0;entryDy=0;" edge="1" parent="zI5HyYLua-8yxu4dtlrq-542" source="zI5HyYLua-8yxu4dtlrq-533" target="zI5HyYLua-8yxu4dtlrq-534">
          <mxGeometry relative="1" as="geometry" />
        </mxCell>
        <mxCell id="zI5HyYLua-8yxu4dtlrq-533" value="WÃ¤hle Kontakt aus" style="rounded=1;whiteSpace=wrap;html=1;fontSize=12;glass=0;strokeWidth=1;shadow=0;fillColor=#d5e8d4;strokeColor=#82b366;container=0;" vertex="1" parent="zI5HyYLua-8yxu4dtlrq-542">
          <mxGeometry x="313.17" y="373.83" width="120" height="40" as="geometry" />
        </mxCell>
        <mxCell id="zI5HyYLua-8yxu4dtlrq-539" style="edgeStyle=orthogonalEdgeStyle;rounded=0;orthogonalLoop=1;jettySize=auto;html=1;entryX=0;entryY=0.5;entryDx=0;entryDy=0;exitX=0.5;exitY=1;exitDx=0;exitDy=0;" edge="1" parent="zI5HyYLua-8yxu4dtlrq-542" source="zI5HyYLua-8yxu4dtlrq-534" target="zI5HyYLua-8yxu4dtlrq-516">
          <mxGeometry relative="1" as="geometry" />
        </mxCell>
        <mxCell id="zI5HyYLua-8yxu4dtlrq-534" value="speicher kontakt" style="rounded=0;whiteSpace=wrap;html=1;fillColor=#ffe6cc;strokeColor=#d79b00;container=0;" vertex="1" parent="zI5HyYLua-8yxu4dtlrq-542">
          <mxGeometry x="55.97512195121949" y="369.99744680851063" width="111.95121951219512" height="47.659574468085104" as="geometry" />
        </mxCell>
        <mxCell id="zI5HyYLua-8yxu4dtlrq-506" value="ZurÃ¼ckbutton" style="rounded=1;whiteSpace=wrap;html=1;fontSize=12;glass=0;strokeWidth=1;shadow=0;fillColor=#f8cecc;strokeColor=#b85450;container=0;" vertex="1" parent="zI5HyYLua-8yxu4dtlrq-542">
          <mxGeometry x="24.878048780487802" y="46.17468085106378" width="99.51219512195122" height="47.659574468085104" as="geometry" />
        </mxCell>
        <mxCell id="zI5HyYLua-8yxu4dtlrq-569" value="" style="group;fillColor=#ffe6cc;strokeColor=#d79b00;container=0;" vertex="1" connectable="0" parent="1">
          <mxGeometry x="320" y="540" width="490" height="630" as="geometry" />
        </mxCell>
        <mxCell id="zI5HyYLua-8yxu4dtlrq-253" value="" style="whiteSpace=wrap;html=1;aspect=fixed;fillColor=#f8cecc;strokeColor=#b85450;container=0;" vertex="1" parent="1">
          <mxGeometry x="-1760" y="70" width="670" height="670" as="geometry" />
        </mxCell>
        <mxCell id="zI5HyYLua-8yxu4dtlrq-323" value="App Ã¶ffnen" style="rounded=1;whiteSpace=wrap;html=1;fontSize=12;glass=0;strokeWidth=1;shadow=0;fillColor=#d5e8d4;strokeColor=#82b366;container=0;" vertex="1" parent="1">
          <mxGeometry x="-1500" y="240" width="120" height="40" as="geometry" />
        </mxCell>
        <mxCell id="zI5HyYLua-8yxu4dtlrq-324" value="" style="edgeStyle=orthogonalEdgeStyle;rounded=0;orthogonalLoop=1;jettySize=auto;html=1;" edge="1" parent="1" source="zI5HyYLua-8yxu4dtlrq-323" target="zI5HyYLua-8yxu4dtlrq-307">
          <mxGeometry relative="1" as="geometry" />
        </mxCell>
        <mxCell id="zI5HyYLua-8yxu4dtlrq-254" value="&lt;font&gt;&lt;b&gt;Login/Register&lt;/b&gt;&lt;/font&gt;" style="text;html=1;align=center;verticalAlign=middle;whiteSpace=wrap;rounded=0;fontSize=25;container=0;" vertex="1" parent="1">
          <mxGeometry x="-1495" y="90" width="60" height="30" as="geometry" />
        </mxCell>
        <mxCell id="zI5HyYLua-8yxu4dtlrq-633" value="" style="edgeStyle=orthogonalEdgeStyle;rounded=0;orthogonalLoop=1;jettySize=auto;html=1;" edge="1" parent="1" source="zI5HyYLua-8yxu4dtlrq-291" target="zI5HyYLua-8yxu4dtlrq-630">
          <mxGeometry relative="1" as="geometry" />
        </mxCell>
        <mxCell id="zI5HyYLua-8yxu4dtlrq-291" value="Anmelden" style="rounded=1;whiteSpace=wrap;html=1;fontSize=12;glass=0;strokeWidth=1;shadow=0;fillColor=#f8cecc;strokeColor=#b85450;container=0;" vertex="1" parent="1">
          <mxGeometry x="-1390" y="420" width="120" height="40" as="geometry" />
        </mxCell>
        <mxCell id="zI5HyYLua-8yxu4dtlrq-639" value="" style="edgeStyle=orthogonalEdgeStyle;rounded=0;orthogonalLoop=1;jettySize=auto;html=1;" edge="1" parent="1" source="zI5HyYLua-8yxu4dtlrq-292" target="zI5HyYLua-8yxu4dtlrq-347">
          <mxGeometry relative="1" as="geometry" />
        </mxCell>
        <mxCell id="zI5HyYLua-8yxu4dtlrq-292" value="Registreren" style="rounded=1;whiteSpace=wrap;html=1;fontSize=12;glass=0;strokeWidth=1;shadow=0;fillColor=#f8cecc;strokeColor=#b85450;container=0;" vertex="1" parent="1">
          <mxGeometry x="-1245" y="470" width="120" height="40" as="geometry" />
        </mxCell>
        <mxCell id="zI5HyYLua-8yxu4dtlrq-637" value="" style="edgeStyle=orthogonalEdgeStyle;rounded=0;orthogonalLoop=1;jettySize=auto;html=1;" edge="1" parent="1" source="zI5HyYLua-8yxu4dtlrq-293" target="zI5HyYLua-8yxu4dtlrq-334">
          <mxGeometry relative="1" as="geometry" />
        </mxCell>
        <mxCell id="zI5HyYLua-8yxu4dtlrq-293" value="Abmelden (Unsichtbar)" style="rounded=1;whiteSpace=wrap;html=1;fontSize=12;glass=0;strokeWidth=1;shadow=0;fillColor=#f8cecc;strokeColor=#b85450;container=0;" vertex="1" parent="1">
          <mxGeometry x="-1725" y="585" width="120" height="40" as="geometry" />
        </mxCell>
        <mxCell id="zI5HyYLua-8yxu4dtlrq-643" style="edgeStyle=orthogonalEdgeStyle;rounded=0;orthogonalLoop=1;jettySize=auto;html=1;entryX=0;entryY=0.5;entryDx=0;entryDy=0;" edge="1" parent="1" source="zI5HyYLua-8yxu4dtlrq-305" target="zI5HyYLua-8yxu4dtlrq-291">
          <mxGeometry relative="1" as="geometry" />
        </mxCell>
        <mxCell id="zI5HyYLua-8yxu4dtlrq-644" style="edgeStyle=orthogonalEdgeStyle;rounded=0;orthogonalLoop=1;jettySize=auto;html=1;entryX=0;entryY=0.5;entryDx=0;entryDy=0;" edge="1" parent="1" source="zI5HyYLua-8yxu4dtlrq-305" target="zI5HyYLua-8yxu4dtlrq-292">
          <mxGeometry relative="1" as="geometry">
            <Array as="points">
              <mxPoint x="-1485" y="490" />
            </Array>
          </mxGeometry>
        </mxCell>
        <mxCell id="zI5HyYLua-8yxu4dtlrq-305" value="email/passwort" style="rounded=1;whiteSpace=wrap;html=1;fontSize=12;glass=0;strokeWidth=1;shadow=0;fillColor=#e1d5e7;strokeColor=#9673a6;container=0;" vertex="1" parent="1">
          <mxGeometry x="-1675" y="423" width="90" height="34" as="geometry" />
        </mxCell>
        <mxCell id="zI5HyYLua-8yxu4dtlrq-629" value="" style="edgeStyle=orthogonalEdgeStyle;rounded=0;orthogonalLoop=1;jettySize=auto;html=1;" edge="1" parent="1" source="zI5HyYLua-8yxu4dtlrq-306" target="zI5HyYLua-8yxu4dtlrq-305">
          <mxGeometry relative="1" as="geometry" />
        </mxCell>
        <mxCell id="zI5HyYLua-8yxu4dtlrq-306" value="UserAuthScreen" style="rounded=0;whiteSpace=wrap;html=1;fillColor=#dae8fc;strokeColor=#6c8ebf;container=0;" vertex="1" parent="1">
          <mxGeometry x="-1675" y="346" width="90" height="34" as="geometry" />
        </mxCell>
        <mxCell id="zI5HyYLua-8yxu4dtlrq-326" value="" style="edgeStyle=orthogonalEdgeStyle;rounded=0;orthogonalLoop=1;jettySize=auto;html=1;" edge="1" parent="1" source="zI5HyYLua-8yxu4dtlrq-307" target="zI5HyYLua-8yxu4dtlrq-306">
          <mxGeometry relative="1" as="geometry" />
        </mxCell>
        <mxCell id="zI5HyYLua-8yxu4dtlrq-330" value="Nein" style="edgeLabel;html=1;align=center;verticalAlign=middle;resizable=0;points=[];container=0;" vertex="1" connectable="0" parent="zI5HyYLua-8yxu4dtlrq-326">
          <mxGeometry x="-0.0667" relative="1" as="geometry">
            <mxPoint as="offset" />
          </mxGeometry>
        </mxCell>
        <mxCell id="zI5HyYLua-8yxu4dtlrq-645" style="edgeStyle=orthogonalEdgeStyle;rounded=0;orthogonalLoop=1;jettySize=auto;html=1;" edge="1" parent="1" source="zI5HyYLua-8yxu4dtlrq-307">
          <mxGeometry relative="1" as="geometry">
            <mxPoint x="-700" y="150" as="targetPoint" />
            <Array as="points">
              <mxPoint x="-1630" y="-100" />
              <mxPoint x="-710" y="-100" />
              <mxPoint x="-710" y="150" />
            </Array>
          </mxGeometry>
        </mxCell>
        <mxCell id="zI5HyYLua-8yxu4dtlrq-646" value="Ja" style="edgeLabel;html=1;align=center;verticalAlign=middle;resizable=0;points=[];" vertex="1" connectable="0" parent="zI5HyYLua-8yxu4dtlrq-645">
          <mxGeometry x="-0.8749" y="4" relative="1" as="geometry">
            <mxPoint as="offset" />
          </mxGeometry>
        </mxCell>
        <mxCell id="zI5HyYLua-8yxu4dtlrq-307" value="User eingelogt?" style="rhombus;whiteSpace=wrap;html=1;shadow=0;fontFamily=Helvetica;fontSize=12;align=center;strokeWidth=1;spacing=6;spacingTop=-4;container=0;" vertex="1" parent="1">
          <mxGeometry x="-1670" y="230" width="80" height="60" as="geometry" />
        </mxCell>
        <mxCell id="zI5HyYLua-8yxu4dtlrq-627" style="edgeStyle=orthogonalEdgeStyle;rounded=0;orthogonalLoop=1;jettySize=auto;html=1;entryX=0;entryY=0;entryDx=0;entryDy=0;" edge="1" parent="1" source="zI5HyYLua-8yxu4dtlrq-319" target="zI5HyYLua-8yxu4dtlrq-250">
          <mxGeometry relative="1" as="geometry" />
        </mxCell>
        <mxCell id="zI5HyYLua-8yxu4dtlrq-319" value="Login" style="rounded=0;whiteSpace=wrap;html=1;fillColor=#ffe6cc;strokeColor=#d79b00;container=0;" vertex="1" parent="1">
          <mxGeometry x="-1230" y="85" width="90" height="40" as="geometry" />
        </mxCell>
        <mxCell id="zI5HyYLua-8yxu4dtlrq-325" style="edgeStyle=orthogonalEdgeStyle;rounded=0;orthogonalLoop=1;jettySize=auto;html=1;exitX=0.5;exitY=1;exitDx=0;exitDy=0;" edge="1" parent="1" source="zI5HyYLua-8yxu4dtlrq-306" target="zI5HyYLua-8yxu4dtlrq-306">
          <mxGeometry relative="1" as="geometry" />
        </mxCell>
        <mxCell id="zI5HyYLua-8yxu4dtlrq-628" style="edgeStyle=orthogonalEdgeStyle;rounded=0;orthogonalLoop=1;jettySize=auto;html=1;entryX=0;entryY=0;entryDx=0;entryDy=0;" edge="1" parent="1" source="zI5HyYLua-8yxu4dtlrq-333" target="zI5HyYLua-8yxu4dtlrq-250">
          <mxGeometry relative="1" as="geometry">
            <Array as="points">
              <mxPoint x="-936" y="160" />
              <mxPoint x="-936" y="126" />
              <mxPoint x="-730" y="126" />
              <mxPoint x="-730" y="146" />
            </Array>
          </mxGeometry>
        </mxCell>
        <mxCell id="zI5HyYLua-8yxu4dtlrq-333" value="Registrieren" style="rounded=0;whiteSpace=wrap;html=1;fillColor=#ffe6cc;strokeColor=#d79b00;container=0;" vertex="1" parent="1">
          <mxGeometry x="-1230" y="140" width="90" height="40" as="geometry" />
        </mxCell>
        <mxCell id="zI5HyYLua-8yxu4dtlrq-334" value="Nutzer abmelden" style="rounded=0;whiteSpace=wrap;html=1;fillColor=#ffe6cc;strokeColor=#d79b00;container=0;" vertex="1" parent="1">
          <mxGeometry x="-1710" y="659.15" width="90" height="40" as="geometry" />
        </mxCell>
        <mxCell id="zI5HyYLua-8yxu4dtlrq-640" value="" style="edgeStyle=orthogonalEdgeStyle;rounded=0;orthogonalLoop=1;jettySize=auto;html=1;" edge="1" parent="1" source="zI5HyYLua-8yxu4dtlrq-347" target="zI5HyYLua-8yxu4dtlrq-348">
          <mxGeometry relative="1" as="geometry" />
        </mxCell>
        <mxCell id="zI5HyYLua-8yxu4dtlrq-347" value="Nutzer hnzufÃ¼gen" style="rounded=0;whiteSpace=wrap;html=1;fillColor=#ffe6cc;strokeColor=#d79b00;container=0;" vertex="1" parent="1">
          <mxGeometry x="-1230" y="346" width="90" height="36" as="geometry" />
        </mxCell>
        <mxCell id="zI5HyYLua-8yxu4dtlrq-641" value="" style="edgeStyle=orthogonalEdgeStyle;rounded=0;orthogonalLoop=1;jettySize=auto;html=1;" edge="1" parent="1" source="zI5HyYLua-8yxu4dtlrq-348" target="zI5HyYLua-8yxu4dtlrq-333">
          <mxGeometry relative="1" as="geometry" />
        </mxCell>
        <mxCell id="zI5HyYLua-8yxu4dtlrq-348" value="verifiziere input/user" style="rounded=0;whiteSpace=wrap;html=1;fillColor=#ffe6cc;strokeColor=#d79b00;container=0;" vertex="1" parent="1">
          <mxGeometry x="-1230" y="230" width="90" height="40" as="geometry" />
        </mxCell>
        <mxCell id="zI5HyYLua-8yxu4dtlrq-642" style="edgeStyle=orthogonalEdgeStyle;rounded=0;orthogonalLoop=1;jettySize=auto;html=1;entryX=0;entryY=0.5;entryDx=0;entryDy=0;" edge="1" parent="1" source="zI5HyYLua-8yxu4dtlrq-630" target="zI5HyYLua-8yxu4dtlrq-319">
          <mxGeometry relative="1" as="geometry" />
        </mxCell>
        <mxCell id="zI5HyYLua-8yxu4dtlrq-630" value="verifiziere input/user" style="rounded=0;whiteSpace=wrap;html=1;fillColor=#ffe6cc;strokeColor=#d79b00;container=0;" vertex="1" parent="1">
          <mxGeometry x="-1375" y="320" width="90" height="40" as="geometry" />
        </mxCell>
        <mxCell id="zI5HyYLua-8yxu4dtlrq-638" style="edgeStyle=orthogonalEdgeStyle;rounded=0;orthogonalLoop=1;jettySize=auto;html=1;exitX=0.5;exitY=1;exitDx=0;exitDy=0;" edge="1" parent="1" source="zI5HyYLua-8yxu4dtlrq-293" target="zI5HyYLua-8yxu4dtlrq-293">
          <mxGeometry relative="1" as="geometry" />
        </mxCell>
        <mxCell id="zI5HyYLua-8yxu4dtlrq-166" value="" style="rounded=0;whiteSpace=wrap;html=1;fillColor=#d5e8d4;strokeColor=#82b366;" vertex="1" parent="1">
          <mxGeometry x="-240" y="70" width="410" height="470" as="geometry" />
        </mxCell>
        <mxCell id="zI5HyYLua-8yxu4dtlrq-168" value="Notfallnachichtbutton" style="rounded=1;whiteSpace=wrap;html=1;fontSize=12;glass=0;strokeWidth=1;shadow=0;fillColor=#ffe6cc;strokeColor=#d79b00;" vertex="1" parent="1">
          <mxGeometry x="40" y="380" width="120" height="40" as="geometry" />
        </mxCell>
        <mxCell id="zI5HyYLua-8yxu4dtlrq-744" style="edgeStyle=orthogonalEdgeStyle;rounded=0;orthogonalLoop=1;jettySize=auto;html=1;" edge="1" parent="1" source="zI5HyYLua-8yxu4dtlrq-169">
          <mxGeometry relative="1" as="geometry">
            <mxPoint x="-4" y="620" as="targetPoint" />
            <Array as="points">
              <mxPoint x="-30" y="515" />
              <mxPoint x="-60" y="515" />
              <mxPoint x="-60" y="611" />
            </Array>
          </mxGeometry>
        </mxCell>
        <mxCell id="zI5HyYLua-8yxu4dtlrq-169" value="Notfallkontaktebutton" style="rounded=1;whiteSpace=wrap;html=1;fontSize=12;glass=0;strokeWidth=1;shadow=0;fillColor=#ffe6cc;strokeColor=#d79b00;" vertex="1" parent="1">
          <mxGeometry x="-90" y="380" width="120" height="40" as="geometry" />
        </mxCell>
        <mxCell id="zI5HyYLua-8yxu4dtlrq-180" value="ZurÃ¼ckbutton" style="rounded=1;whiteSpace=wrap;html=1;fontSize=12;glass=0;strokeWidth=1;shadow=0;fillColor=#ffe6cc;strokeColor=#d79b00;" vertex="1" parent="1">
          <mxGeometry x="-220" y="100" width="80" height="40" as="geometry" />
        </mxCell>
        <mxCell id="zI5HyYLua-8yxu4dtlrq-499" value="" style="edgeStyle=orthogonalEdgeStyle;rounded=0;orthogonalLoop=1;jettySize=auto;html=1;fillColor=#ffe6cc;strokeColor=light-dark(#000000, #996500);" edge="1" parent="1" source="zI5HyYLua-8yxu4dtlrq-361" target="zI5HyYLua-8yxu4dtlrq-497">
          <mxGeometry relative="1" as="geometry" />
        </mxCell>
        <mxCell id="zI5HyYLua-8yxu4dtlrq-361" value="Abmelden" style="rounded=1;whiteSpace=wrap;html=1;fontSize=12;glass=0;strokeWidth=1;shadow=0;fillColor=#ffe6cc;strokeColor=#d79b00;" vertex="1" parent="1">
          <mxGeometry x="-230" y="380" width="120" height="40" as="geometry" />
        </mxCell>
        <mxCell id="zI5HyYLua-8yxu4dtlrq-367" value="&lt;font&gt;&lt;b&gt;Einstellungen&lt;/b&gt;&lt;/font&gt;" style="text;html=1;align=center;verticalAlign=middle;whiteSpace=wrap;rounded=0;fontSize=25;fillColor=#d5e8d4;strokeColor=#82b366;" vertex="1" parent="1">
          <mxGeometry x="-80" y="80" width="60" height="30" as="geometry" />
        </mxCell>
        <mxCell id="zI5HyYLua-8yxu4dtlrq-450" value="Einstellungsscreen" style="rounded=1;whiteSpace=wrap;html=1;fontSize=12;glass=0;strokeWidth=1;shadow=0;fillColor=#ffe6cc;strokeColor=#d79b00;" vertex="1" parent="1">
          <mxGeometry x="-110" y="130" width="120" height="40" as="geometry" />
        </mxCell>
        <mxCell id="zI5HyYLua-8yxu4dtlrq-756" style="edgeStyle=orthogonalEdgeStyle;rounded=0;orthogonalLoop=1;jettySize=auto;html=1;entryX=1;entryY=0.5;entryDx=0;entryDy=0;fillColor=#ffcd28;gradientColor=#ffa500;strokeColor=#d79b00;" edge="1" parent="1" source="zI5HyYLua-8yxu4dtlrq-497" target="zI5HyYLua-8yxu4dtlrq-186">
          <mxGeometry relative="1" as="geometry">
            <Array as="points">
              <mxPoint x="-280" y="490" />
              <mxPoint x="-280" y="1130" />
              <mxPoint x="-1275" y="1130" />
            </Array>
          </mxGeometry>
        </mxCell>
        <mxCell id="zI5HyYLua-8yxu4dtlrq-757" style="edgeStyle=orthogonalEdgeStyle;rounded=0;orthogonalLoop=1;jettySize=auto;html=1;entryX=1;entryY=0.5;entryDx=0;entryDy=0;exitX=0.25;exitY=1;exitDx=0;exitDy=0;" edge="1" parent="1" source="zI5HyYLua-8yxu4dtlrq-497" target="zI5HyYLua-8yxu4dtlrq-306">
          <mxGeometry relative="1" as="geometry">
            <mxPoint x="-220" y="510" as="sourcePoint" />
            <Array as="points">
              <mxPoint x="-902" y="511" />
              <mxPoint x="-902" y="300" />
              <mxPoint x="-1585" y="300" />
            </Array>
          </mxGeometry>
        </mxCell>
        <mxCell id="zI5HyYLua-8yxu4dtlrq-497" value="Nutzer abmelden" style="rounded=0;whiteSpace=wrap;html=1;fillColor=#ffe6cc;strokeColor=#d79b00;" vertex="1" parent="1">
          <mxGeometry x="-215" y="470" width="90" height="40" as="geometry" />
        </mxCell>
        <mxCell id="zI5HyYLua-8yxu4dtlrq-544" value="" style="rounded=0;whiteSpace=wrap;html=1;fillColor=#e1d5e7;strokeColor=#9673a6;container=0;" vertex="1" parent="1">
          <mxGeometry x="320" y="540" width="490" height="630" as="geometry" />
        </mxCell>
        <mxCell id="zI5HyYLua-8yxu4dtlrq-547" value="" style="edgeStyle=orthogonalEdgeStyle;rounded=0;orthogonalLoop=1;jettySize=auto;html=1;" edge="1" parent="1" source="zI5HyYLua-8yxu4dtlrq-548" target="zI5HyYLua-8yxu4dtlrq-564">
          <mxGeometry relative="1" as="geometry" />
        </mxCell>
        <mxCell id="zI5HyYLua-8yxu4dtlrq-548" value="Speichern" style="rounded=1;whiteSpace=wrap;html=1;fontSize=12;glass=0;strokeWidth=1;shadow=0;fillColor=#f8cecc;strokeColor=#b85450;container=0;" vertex="1" parent="1">
          <mxGeometry x="357.31658536585365" y="799.9974468085106" width="149.26829268292684" height="47.659574468085104" as="geometry" />
        </mxCell>
        <mxCell id="zI5HyYLua-8yxu4dtlrq-549" value="&lt;font&gt;&lt;b&gt;Notfallnachricht&lt;/b&gt;&lt;/font&gt;" style="text;html=1;align=center;verticalAlign=middle;whiteSpace=wrap;rounded=0;fontSize=25;container=0;" vertex="1" parent="1">
          <mxGeometry x="527.6843902439025" y="550.4300000000001" width="74.63414634146342" height="35.744680851063826" as="geometry" />
        </mxCell>
        <mxCell id="zI5HyYLua-8yxu4dtlrq-821" style="edgeStyle=orthogonalEdgeStyle;rounded=0;orthogonalLoop=1;jettySize=auto;html=1;entryX=0.5;entryY=0;entryDx=0;entryDy=0;" edge="1" parent="1" source="zI5HyYLua-8yxu4dtlrq-551" target="zI5HyYLua-8yxu4dtlrq-817">
          <mxGeometry relative="1" as="geometry" />
        </mxCell>
        <mxCell id="zI5HyYLua-8yxu4dtlrq-551" value="Notfallnachrichtscreen" style="rounded=1;whiteSpace=wrap;html=1;fontSize=12;glass=0;strokeWidth=1;shadow=0;fillColor=#dae8fc;strokeColor=#6c8ebf;container=0;" vertex="1" parent="1">
          <mxGeometry x="481.70731707317077" y="611.4893617021277" width="149.26829268292684" height="47.659574468085104" as="geometry" />
        </mxCell>
        <mxCell id="zI5HyYLua-8yxu4dtlrq-554" value="" style="edgeStyle=orthogonalEdgeStyle;rounded=0;orthogonalLoop=1;jettySize=auto;html=1;" edge="1" parent="1" source="zI5HyYLua-8yxu4dtlrq-555" target="zI5HyYLua-8yxu4dtlrq-548">
          <mxGeometry relative="1" as="geometry" />
        </mxCell>
        <mxCell id="zI5HyYLua-8yxu4dtlrq-555" value="input: nachricht" style="rounded=1;whiteSpace=wrap;html=1;fontSize=12;glass=0;strokeWidth=1;shadow=0;fillColor=#e1d5e7;strokeColor=#9673a6;container=0;" vertex="1" parent="1">
          <mxGeometry x="363.5360975609756" y="690.0034042553191" width="136.82926829268294" height="59.57446808510638" as="geometry" />
        </mxCell>
        <mxCell id="zI5HyYLua-8yxu4dtlrq-556" value="Zeige aktuelle oder standard Nachricht" style="rounded=0;whiteSpace=wrap;html=1;fillColor=#ffe6cc;strokeColor=#d79b00;container=0;" vertex="1" parent="1">
          <mxGeometry x="500.3651219512195" y="1041.9965957446807" width="111.95121951219512" height="47.659574468085104" as="geometry" />
        </mxCell>
        <mxCell id="zI5HyYLua-8yxu4dtlrq-563" style="edgeStyle=orthogonalEdgeStyle;rounded=0;orthogonalLoop=1;jettySize=auto;html=1;entryX=0;entryY=0.5;entryDx=0;entryDy=0;exitX=0.5;exitY=1;exitDx=0;exitDy=0;" edge="1" parent="1" source="zI5HyYLua-8yxu4dtlrq-564" target="zI5HyYLua-8yxu4dtlrq-556">
          <mxGeometry relative="1" as="geometry" />
        </mxCell>
        <mxCell id="zI5HyYLua-8yxu4dtlrq-564" value="speicher Nachricht" style="rounded=0;whiteSpace=wrap;html=1;fillColor=#ffe6cc;strokeColor=#d79b00;container=0;" vertex="1" parent="1">
          <mxGeometry x="375.97512195121953" y="909.9974468085106" width="111.95121951219512" height="47.659574468085104" as="geometry" />
        </mxCell>
        <mxCell id="zI5HyYLua-8yxu4dtlrq-747" style="edgeStyle=orthogonalEdgeStyle;rounded=0;orthogonalLoop=1;jettySize=auto;html=1;entryX=1;entryY=0.5;entryDx=0;entryDy=0;" edge="1" parent="1" source="zI5HyYLua-8yxu4dtlrq-565" target="zI5HyYLua-8yxu4dtlrq-450">
          <mxGeometry relative="1" as="geometry">
            <Array as="points">
              <mxPoint x="210" y="610" />
              <mxPoint x="210" y="150" />
            </Array>
          </mxGeometry>
        </mxCell>
        <mxCell id="zI5HyYLua-8yxu4dtlrq-565" value="ZurÃ¼ckbutton" style="rounded=1;whiteSpace=wrap;html=1;fontSize=12;glass=0;strokeWidth=1;shadow=0;fillColor=#f8cecc;strokeColor=#b85450;container=0;" vertex="1" parent="1">
          <mxGeometry x="344.8780487804878" y="586.1746808510638" width="99.51219512195122" height="47.659574468085104" as="geometry" />
        </mxCell>
        <mxCell id="zI5HyYLua-8yxu4dtlrq-358" style="edgeStyle=orthogonalEdgeStyle;rounded=0;orthogonalLoop=1;jettySize=auto;html=1;entryX=0;entryY=0.5;entryDx=0;entryDy=0;fillColor=#ffcd28;gradientColor=#ffa500;strokeColor=#d79b00;" edge="1" parent="1" source="zI5HyYLua-8yxu4dtlrq-186" target="zI5HyYLua-8yxu4dtlrq-188">
          <mxGeometry relative="1" as="geometry">
            <Array as="points">
              <mxPoint x="-1425" y="1160" />
              <mxPoint x="-790" y="1160" />
              <mxPoint x="-790" y="971" />
              <mxPoint x="-725" y="971" />
            </Array>
          </mxGeometry>
        </mxCell>
        <mxCell id="zI5HyYLua-8yxu4dtlrq-755" value="Ãbertrage Notfallnachricht, Standort, Kontaktdaten" style="edgeLabel;html=1;align=center;verticalAlign=middle;resizable=0;points=[];" vertex="1" connectable="0" parent="zI5HyYLua-8yxu4dtlrq-358">
          <mxGeometry x="-0.2858" y="1" relative="1" as="geometry">
            <mxPoint as="offset" />
          </mxGeometry>
        </mxCell>
        <mxCell id="zI5HyYLua-8yxu4dtlrq-451" style="edgeStyle=orthogonalEdgeStyle;rounded=0;orthogonalLoop=1;jettySize=auto;html=1;entryX=0;entryY=0.5;entryDx=0;entryDy=0;" edge="1" parent="1" source="zI5HyYLua-8yxu4dtlrq-163" target="zI5HyYLua-8yxu4dtlrq-450">
          <mxGeometry relative="1" as="geometry" />
        </mxCell>
        <mxCell id="zI5HyYLua-8yxu4dtlrq-454" style="edgeStyle=orthogonalEdgeStyle;rounded=0;orthogonalLoop=1;jettySize=auto;html=1;entryX=0.5;entryY=0;entryDx=0;entryDy=0;exitX=0;exitY=0.5;exitDx=0;exitDy=0;" edge="1" parent="1" source="zI5HyYLua-8yxu4dtlrq-180" target="zI5HyYLua-8yxu4dtlrq-250">
          <mxGeometry relative="1" as="geometry" />
        </mxCell>
        <mxCell id="zI5HyYLua-8yxu4dtlrq-745" style="edgeStyle=orthogonalEdgeStyle;rounded=0;orthogonalLoop=1;jettySize=auto;html=1;entryX=0.5;entryY=0;entryDx=0;entryDy=0;" edge="1" parent="1" source="zI5HyYLua-8yxu4dtlrq-168" target="zI5HyYLua-8yxu4dtlrq-551">
          <mxGeometry relative="1" as="geometry">
            <Array as="points">
              <mxPoint x="100" y="490" />
              <mxPoint x="565" y="490" />
              <mxPoint x="565" y="612" />
            </Array>
          </mxGeometry>
        </mxCell>
        <mxCell id="zI5HyYLua-8yxu4dtlrq-746" style="edgeStyle=orthogonalEdgeStyle;rounded=0;orthogonalLoop=1;jettySize=auto;html=1;entryX=0.5;entryY=1;entryDx=0;entryDy=0;" edge="1" parent="1" source="zI5HyYLua-8yxu4dtlrq-506" target="zI5HyYLua-8yxu4dtlrq-450">
          <mxGeometry relative="1" as="geometry">
            <Array as="points">
              <mxPoint x="-100" y="609" />
              <mxPoint x="-100" y="170" />
            </Array>
          </mxGeometry>
        </mxCell>
        <mxCell id="zI5HyYLua-8yxu4dtlrq-649" value="" style="rounded=0;whiteSpace=wrap;html=1;" vertex="1" parent="1">
          <mxGeometry x="-1760" y="740" width="670" height="270" as="geometry" />
        </mxCell>
        <mxCell id="zI5HyYLua-8yxu4dtlrq-650" value="&lt;font&gt;&lt;b&gt;Berechtigungen anfragen&lt;/b&gt;&lt;/font&gt;" style="text;html=1;align=center;verticalAlign=middle;whiteSpace=wrap;rounded=0;fontSize=25;container=0;" vertex="1" parent="1">
          <mxGeometry x="-1670" y="770" width="60" height="30" as="geometry" />
        </mxCell>
        <mxCell id="zI5HyYLua-8yxu4dtlrq-739" style="edgeStyle=orthogonalEdgeStyle;rounded=0;orthogonalLoop=1;jettySize=auto;html=1;" edge="1" parent="1" source="zI5HyYLua-8yxu4dtlrq-651" target="zI5HyYLua-8yxu4dtlrq-736">
          <mxGeometry relative="1" as="geometry" />
        </mxCell>
        <mxCell id="zI5HyYLua-8yxu4dtlrq-740" value="Nein" style="edgeLabel;html=1;align=center;verticalAlign=middle;resizable=0;points=[];" vertex="1" connectable="0" parent="zI5HyYLua-8yxu4dtlrq-739">
          <mxGeometry x="-0.3141" y="1" relative="1" as="geometry">
            <mxPoint as="offset" />
          </mxGeometry>
        </mxCell>
        <mxCell id="zI5HyYLua-8yxu4dtlrq-651" value="Berechtigungen vorhanden?" style="rhombus;whiteSpace=wrap;html=1;shadow=0;fontFamily=Helvetica;fontSize=12;align=center;strokeWidth=1;spacing=6;spacingTop=-4;" vertex="1" parent="1">
          <mxGeometry x="-1490" y="769.9979310344828" width="100" height="75.86206896551724" as="geometry" />
        </mxCell>
        <mxCell id="zI5HyYLua-8yxu4dtlrq-741" value="" style="edgeStyle=orthogonalEdgeStyle;rounded=0;orthogonalLoop=1;jettySize=auto;html=1;" edge="1" parent="1" source="zI5HyYLua-8yxu4dtlrq-736" target="zI5HyYLua-8yxu4dtlrq-738">
          <mxGeometry relative="1" as="geometry" />
        </mxCell>
        <mxCell id="zI5HyYLua-8yxu4dtlrq-736" value="Berechtigungen anfrgen" style="rounded=0;whiteSpace=wrap;html=1;fillColor=#ffe6cc;strokeColor=#d79b00;container=0;" vertex="1" parent="1">
          <mxGeometry x="-1485" y="880" width="90" height="40" as="geometry" />
        </mxCell>
        <mxCell id="zI5HyYLua-8yxu4dtlrq-738" value="aktzeptieren/ablehnen" style="rounded=1;whiteSpace=wrap;html=1;fontSize=12;glass=0;strokeWidth=1;shadow=0;fillColor=#e1d5e7;strokeColor=#9673a6;container=0;" vertex="1" parent="1">
          <mxGeometry x="-1505" y="957.6600000000002" width="130" height="34.34" as="geometry" />
        </mxCell>
        <mxCell id="zI5HyYLua-8yxu4dtlrq-743" style="edgeStyle=orthogonalEdgeStyle;rounded=0;orthogonalLoop=1;jettySize=auto;html=1;entryX=0.5;entryY=0;entryDx=0;entryDy=0;" edge="1" parent="1" source="zI5HyYLua-8yxu4dtlrq-323" target="zI5HyYLua-8yxu4dtlrq-651">
          <mxGeometry relative="1" as="geometry" />
        </mxCell>
        <mxCell id="zI5HyYLua-8yxu4dtlrq-750" style="edgeStyle=orthogonalEdgeStyle;rounded=0;orthogonalLoop=1;jettySize=auto;html=1;entryX=1;entryY=0.5;entryDx=0;entryDy=0;fillColor=#ffcd28;gradientColor=#ffa500;strokeColor=#d79b00;" edge="1" parent="1" source="zI5HyYLua-8yxu4dtlrq-347" target="zI5HyYLua-8yxu4dtlrq-186">
          <mxGeometry relative="1" as="geometry">
            <Array as="points">
              <mxPoint x="-1110" y="364" />
              <mxPoint x="-1110" y="1090" />
            </Array>
          </mxGeometry>
        </mxCell>
        <mxCell id="zI5HyYLua-8yxu4dtlrq-752" style="edgeStyle=orthogonalEdgeStyle;rounded=0;orthogonalLoop=1;jettySize=auto;html=1;entryX=0;entryY=0.5;entryDx=0;entryDy=0;fillColor=#ffcd28;gradientColor=#ffa500;strokeColor=#d79b00;" edge="1" parent="1" source="zI5HyYLua-8yxu4dtlrq-334" target="zI5HyYLua-8yxu4dtlrq-186">
          <mxGeometry relative="1" as="geometry">
            <Array as="points">
              <mxPoint x="-1740" y="679" />
              <mxPoint x="-1740" y="1090" />
            </Array>
          </mxGeometry>
        </mxCell>
        <mxCell id="zI5HyYLua-8yxu4dtlrq-753" style="edgeStyle=orthogonalEdgeStyle;rounded=0;orthogonalLoop=1;jettySize=auto;html=1;entryX=1;entryY=0.5;entryDx=0;entryDy=0;fillColor=#ffcd28;gradientColor=#ffa500;strokeColor=#d79b00;" edge="1" parent="1" source="zI5HyYLua-8yxu4dtlrq-162" target="zI5HyYLua-8yxu4dtlrq-186">
          <mxGeometry relative="1" as="geometry">
            <Array as="points">
              <mxPoint x="-850" y="570" />
              <mxPoint x="-850" y="1100" />
              <mxPoint x="-1275" y="1100" />
            </Array>
          </mxGeometry>
        </mxCell>
        <mxCell id="zI5HyYLua-8yxu4dtlrq-754" value="Sende Daten" style="edgeLabel;html=1;align=center;verticalAlign=middle;resizable=0;points=[];" vertex="1" connectable="0" parent="zI5HyYLua-8yxu4dtlrq-753">
          <mxGeometry x="-0.3733" y="2" relative="1" as="geometry">
            <mxPoint as="offset" />
          </mxGeometry>
        </mxCell>
        <mxCell id="zI5HyYLua-8yxu4dtlrq-751" style="edgeStyle=orthogonalEdgeStyle;rounded=0;orthogonalLoop=1;jettySize=auto;html=1;entryX=1;entryY=0.5;entryDx=0;entryDy=0;fillColor=#ffcd28;gradientColor=#ffa500;strokeColor=#d79b00;" edge="1" parent="1" source="zI5HyYLua-8yxu4dtlrq-630" target="zI5HyYLua-8yxu4dtlrq-186">
          <mxGeometry relative="1" as="geometry">
            <Array as="points">
              <mxPoint x="-1120" y="330" />
              <mxPoint x="-1120" y="1080" />
              <mxPoint x="-1275" y="1080" />
            </Array>
          </mxGeometry>
        </mxCell>
        <mxCell id="zI5HyYLua-8yxu4dtlrq-758" style="edgeStyle=orthogonalEdgeStyle;rounded=0;orthogonalLoop=1;jettySize=auto;html=1;entryX=1;entryY=0.5;entryDx=0;entryDy=0;fillColor=#ffcd28;gradientColor=#ffa500;strokeColor=#d79b00;" edge="1" parent="1" source="zI5HyYLua-8yxu4dtlrq-534" target="zI5HyYLua-8yxu4dtlrq-186">
          <mxGeometry relative="1" as="geometry">
            <Array as="points">
              <mxPoint x="-128" y="1150" />
              <mxPoint x="-1275" y="1150" />
            </Array>
          </mxGeometry>
        </mxCell>
        <mxCell id="zI5HyYLua-8yxu4dtlrq-759" style="edgeStyle=orthogonalEdgeStyle;rounded=0;orthogonalLoop=1;jettySize=auto;html=1;entryX=0.25;entryY=1;entryDx=0;entryDy=0;fillColor=#ffcd28;gradientColor=#ffa500;strokeColor=#d79b00;" edge="1" parent="1" source="zI5HyYLua-8yxu4dtlrq-186" target="zI5HyYLua-8yxu4dtlrq-516">
          <mxGeometry relative="1" as="geometry">
            <Array as="points">
              <mxPoint x="-667" y="1140" />
              <mxPoint x="-667" y="1160" />
              <mxPoint x="-32" y="1160" />
            </Array>
          </mxGeometry>
        </mxCell>
        <mxCell id="zI5HyYLua-8yxu4dtlrq-803" value="Ãbertrage Kontaktdaten" style="edgeLabel;html=1;align=center;verticalAlign=middle;resizable=0;points=[];" vertex="1" connectable="0" parent="zI5HyYLua-8yxu4dtlrq-759">
          <mxGeometry x="0.7719" y="2" relative="1" as="geometry">
            <mxPoint x="1" as="offset" />
          </mxGeometry>
        </mxCell>
        <mxCell id="zI5HyYLua-8yxu4dtlrq-811" style="edgeStyle=orthogonalEdgeStyle;rounded=0;orthogonalLoop=1;jettySize=auto;html=1;entryX=0.323;entryY=0.998;entryDx=0;entryDy=0;entryPerimeter=0;fillColor=#ffcd28;gradientColor=#ffa500;strokeColor=#d79b00;" edge="1" parent="1" source="zI5HyYLua-8yxu4dtlrq-532" target="zI5HyYLua-8yxu4dtlrq-186">
          <mxGeometry relative="1" as="geometry">
            <Array as="points">
              <mxPoint x="205" y="1150" />
            </Array>
          </mxGeometry>
        </mxCell>
        <mxCell id="zI5HyYLua-8yxu4dtlrq-812" style="edgeStyle=orthogonalEdgeStyle;rounded=0;orthogonalLoop=1;jettySize=auto;html=1;entryX=0.277;entryY=0.969;entryDx=0;entryDy=0;entryPerimeter=0;fillColor=#ffcd28;gradientColor=#ffa500;strokeColor=#d79b00;" edge="1" parent="1" source="zI5HyYLua-8yxu4dtlrq-564" target="zI5HyYLua-8yxu4dtlrq-186">
          <mxGeometry relative="1" as="geometry">
            <Array as="points">
              <mxPoint x="400" y="1160" />
              <mxPoint x="-1492" y="1160" />
            </Array>
          </mxGeometry>
        </mxCell>
        <mxCell id="zI5HyYLua-8yxu4dtlrq-815" style="edgeStyle=orthogonalEdgeStyle;rounded=0;orthogonalLoop=1;jettySize=auto;html=1;entryX=0.5;entryY=1;entryDx=0;entryDy=0;fillColor=#ffcd28;gradientColor=#ffa500;strokeColor=#d79b00;" edge="1" parent="1" source="zI5HyYLua-8yxu4dtlrq-186" target="zI5HyYLua-8yxu4dtlrq-556">
          <mxGeometry relative="1" as="geometry">
            <Array as="points">
              <mxPoint x="-387" y="1140" />
              <mxPoint x="-387" y="1150" />
              <mxPoint x="556" y="1150" />
            </Array>
          </mxGeometry>
        </mxCell>
        <mxCell id="zI5HyYLua-8yxu4dtlrq-816" value="Sende Nachrichtdaten" style="edgeLabel;html=1;align=center;verticalAlign=middle;resizable=0;points=[];" vertex="1" connectable="0" parent="zI5HyYLua-8yxu4dtlrq-815">
          <mxGeometry x="0.868" y="4" relative="1" as="geometry">
            <mxPoint as="offset" />
          </mxGeometry>
        </mxCell>
        <mxCell id="zI5HyYLua-8yxu4dtlrq-819" value="" style="edgeStyle=orthogonalEdgeStyle;rounded=0;orthogonalLoop=1;jettySize=auto;html=1;" edge="1" parent="1" source="zI5HyYLua-8yxu4dtlrq-817" target="zI5HyYLua-8yxu4dtlrq-818">
          <mxGeometry relative="1" as="geometry" />
        </mxCell>
        <mxCell id="zI5HyYLua-8yxu4dtlrq-823" value="Nein" style="edgeLabel;html=1;align=center;verticalAlign=middle;resizable=0;points=[];" vertex="1" connectable="0" parent="zI5HyYLua-8yxu4dtlrq-819">
          <mxGeometry x="-0.2571" y="1" relative="1" as="geometry">
            <mxPoint as="offset" />
          </mxGeometry>
        </mxCell>
        <mxCell id="zI5HyYLua-8yxu4dtlrq-822" style="edgeStyle=orthogonalEdgeStyle;rounded=0;orthogonalLoop=1;jettySize=auto;html=1;entryX=0.5;entryY=0;entryDx=0;entryDy=0;" edge="1" parent="1" source="zI5HyYLua-8yxu4dtlrq-817" target="zI5HyYLua-8yxu4dtlrq-556">
          <mxGeometry relative="1" as="geometry" />
        </mxCell>
        <mxCell id="zI5HyYLua-8yxu4dtlrq-824" value="Ja" style="edgeLabel;html=1;align=center;verticalAlign=middle;resizable=0;points=[];" vertex="1" connectable="0" parent="zI5HyYLua-8yxu4dtlrq-822">
          <mxGeometry x="0.0417" y="-1" relative="1" as="geometry">
            <mxPoint as="offset" />
          </mxGeometry>
        </mxCell>
        <mxCell id="zI5HyYLua-8yxu4dtlrq-817" value="Nachricht vorhanden?" style="rhombus;whiteSpace=wrap;html=1;" vertex="1" parent="1">
          <mxGeometry x="631" y="749" width="109" height="101" as="geometry" />
        </mxCell>
        <mxCell id="zI5HyYLua-8yxu4dtlrq-820" style="edgeStyle=orthogonalEdgeStyle;rounded=0;orthogonalLoop=1;jettySize=auto;html=1;entryX=1;entryY=0.5;entryDx=0;entryDy=0;" edge="1" parent="1" source="zI5HyYLua-8yxu4dtlrq-818" target="zI5HyYLua-8yxu4dtlrq-556">
          <mxGeometry relative="1" as="geometry">
            <Array as="points">
              <mxPoint x="690" y="995" />
              <mxPoint x="632" y="995" />
              <mxPoint x="632" y="1066" />
            </Array>
          </mxGeometry>
        </mxCell>
        <mxCell id="zI5HyYLua-8yxu4dtlrq-818" value="Setze Standardnachricht" style="rounded=0;whiteSpace=wrap;html=1;fillColor=#ffe6cc;strokeColor=#d79b00;container=0;" vertex="1" parent="1">
          <mxGeometry x="629.5251219512195" y="899.9974468085106" width="111.95121951219512" height="47.659574468085104" as="geometry" />
        </mxCell>
      </root>
    </mxGraphModel>
  </diagram>
</mxfile>
